<mxfile host="app.diagrams.net" agent="Mozilla/5.0 (Windows NT 10.0; Win64; x64) AppleWebKit/537.36 (KHTML, like Gecko) Chrome/136.0.0.0 Safari/537.36" version="27.0.3">
  <diagram name="Page-1" id="njp6pxb4XW8KGzmO_27R">
    <mxGraphModel dx="2063" dy="764" grid="1" gridSize="10" guides="1" tooltips="1" connect="1" arrows="1" fold="1" page="1" pageScale="1" pageWidth="850" pageHeight="1100" math="0" shadow="0">
      <root>
        <mxCell id="0" />
        <mxCell id="1" parent="0" />
        <mxCell id="MnoFGSXp_-6RD4RvQXXh-1" value="&lt;b&gt;Χρήστης&lt;/b&gt;" style="shape=umlActor;verticalLabelPosition=bottom;verticalAlign=top;html=1;outlineConnect=0;" parent="1" vertex="1">
          <mxGeometry x="60" y="190" width="30" height="60" as="geometry" />
        </mxCell>
        <mxCell id="MnoFGSXp_-6RD4RvQXXh-3" value="Δημιουργία Λογαριασμού" style="text;html=1;align=center;verticalAlign=middle;resizable=0;points=[];autosize=1;strokeColor=none;fillColor=none;rotation=-35;fontSize=13;fontStyle=2;fontColor=#0066CC;" parent="1" vertex="1">
          <mxGeometry x="70" y="130" width="170" height="30" as="geometry" />
        </mxCell>
        <mxCell id="MnoFGSXp_-6RD4RvQXXh-5" value="AppHomepage" style="text;html=1;align=center;verticalAlign=middle;resizable=0;points=[];autosize=1;strokeColor=none;fillColor=none;fontSize=14;fontStyle=1;fontColor=#000000;" parent="1" vertex="1">
          <mxGeometry x="235" y="30" width="120" height="30" as="geometry" />
        </mxCell>
        <mxCell id="MnoFGSXp_-6RD4RvQXXh-7" value="Εμφάνιση φόρμας συμπλήρωσης&lt;div&gt;στοιχείων&amp;nbsp;&lt;/div&gt;&lt;div&gt;νέου χρήστη&lt;/div&gt;" style="ellipse;shape=umlControl;whiteSpace=wrap;html=1;fontStyle=0" parent="1" vertex="1">
          <mxGeometry x="410" y="80" width="130" height="110" as="geometry" />
        </mxCell>
        <mxCell id="MnoFGSXp_-6RD4RvQXXh-9" value="" style="shape=umlBoundary;whiteSpace=wrap;html=1;" parent="1" vertex="1">
          <mxGeometry x="250" y="188" width="100" height="80" as="geometry" />
        </mxCell>
        <mxCell id="MnoFGSXp_-6RD4RvQXXh-10" value="Register page" style="text;html=1;align=center;verticalAlign=middle;resizable=0;points=[];autosize=1;strokeColor=none;fillColor=none;fontSize=14;fontStyle=1" parent="1" vertex="1">
          <mxGeometry x="255" y="158" width="110" height="30" as="geometry" />
        </mxCell>
        <mxCell id="MnoFGSXp_-6RD4RvQXXh-13" value="Επεξεργασία στοιχείων χρήστη" style="ellipse;shape=umlControl;whiteSpace=wrap;html=1;" parent="1" vertex="1">
          <mxGeometry x="242" y="310" width="86" height="90" as="geometry" />
        </mxCell>
        <mxCell id="MnoFGSXp_-6RD4RvQXXh-15" value="" style="ellipse;shape=umlEntity;whiteSpace=wrap;html=1;" parent="1" vertex="1">
          <mxGeometry x="505" y="218" width="80" height="80" as="geometry" />
        </mxCell>
        <mxCell id="MnoFGSXp_-6RD4RvQXXh-16" value="Βάση Δεδομένων" style="text;html=1;align=center;verticalAlign=middle;resizable=0;points=[];autosize=1;strokeColor=none;fillColor=none;fontSize=14;fontStyle=1" parent="1" vertex="1">
          <mxGeometry x="480" y="188" width="130" height="30" as="geometry" />
        </mxCell>
        <mxCell id="MnoFGSXp_-6RD4RvQXXh-18" value="Δημιουργία λογαριασμού Χρήστη" style="ellipse;shape=umlControl;whiteSpace=wrap;html=1;" parent="1" vertex="1">
          <mxGeometry x="495" y="336" width="90" height="92" as="geometry" />
        </mxCell>
        <mxCell id="MnoFGSXp_-6RD4RvQXXh-21" value="" style="ellipse;shape=umlEntity;whiteSpace=wrap;html=1;" parent="1" vertex="1">
          <mxGeometry x="620" y="344" width="80" height="80" as="geometry" />
        </mxCell>
        <mxCell id="MnoFGSXp_-6RD4RvQXXh-22" value="Χρήστης" style="text;html=1;align=center;verticalAlign=middle;resizable=0;points=[];autosize=1;strokeColor=none;fillColor=none;fontSize=14;fontStyle=1" parent="1" vertex="1">
          <mxGeometry x="620" y="314" width="80" height="30" as="geometry" />
        </mxCell>
        <mxCell id="MnoFGSXp_-6RD4RvQXXh-23" value="Έγκυρα στοιχεία" style="text;html=1;align=center;verticalAlign=middle;resizable=0;points=[];autosize=1;strokeColor=none;fillColor=none;rotation=5;fontStyle=2;fontSize=13;" parent="1" vertex="1">
          <mxGeometry x="365" y="336" width="120" height="30" as="geometry" />
        </mxCell>
        <mxCell id="MnoFGSXp_-6RD4RvQXXh-25" value="&lt;font color=&quot;#ff6666&quot;&gt;Μη έγκυρος κωδικός&amp;nbsp;&lt;/font&gt;&lt;div&gt;&lt;font color=&quot;#ff6666&quot;&gt;πρόσβασης βάση&amp;nbsp;&lt;/font&gt;&lt;div&gt;&lt;font color=&quot;#ff6666&quot;&gt;ελαχίστων απαιτήσεων&lt;/font&gt;&lt;/div&gt;&lt;/div&gt;" style="text;html=1;align=center;verticalAlign=middle;resizable=0;points=[];autosize=1;strokeColor=none;fillColor=none;rotation=-15;fontStyle=2;fontSize=13;" parent="1" vertex="1">
          <mxGeometry x="-55" y="366" width="160" height="60" as="geometry" />
        </mxCell>
        <mxCell id="MnoFGSXp_-6RD4RvQXXh-26" value="&lt;font style=&quot;color: rgb(255, 102, 102);&quot;&gt;Εμφάνιση μηνύματος για ελάχιστες&lt;/font&gt;&lt;div&gt;&lt;font style=&quot;color: rgb(255, 102, 102);&quot;&gt;απαιτήσεις&amp;nbsp;&lt;/font&gt;&lt;span style=&quot;color: light-dark(rgb(255, 102, 102), rgb(224, 93, 93)); background-color: transparent;&quot;&gt;κωδικού πρόσβασης&lt;/span&gt;&lt;/div&gt;" style="ellipse;shape=umlControl;whiteSpace=wrap;html=1;strokeColor=#FF6666;" parent="1" vertex="1">
          <mxGeometry x="-271" y="435" width="131" height="120" as="geometry" />
        </mxCell>
        <mxCell id="MnoFGSXp_-6RD4RvQXXh-27" value="" style="shape=umlBoundary;whiteSpace=wrap;html=1;strokeColor=#FF6666;" parent="1" vertex="1">
          <mxGeometry x="-160" y="350" width="100" height="80" as="geometry" />
        </mxCell>
        <mxCell id="MnoFGSXp_-6RD4RvQXXh-30" value="Προσθήκη στοιχείων&lt;div&gt;χρήστη&lt;/div&gt;" style="text;html=1;align=center;verticalAlign=middle;resizable=0;points=[];autosize=1;strokeColor=none;fillColor=none;fontSize=13;fontStyle=2" parent="1" vertex="1">
          <mxGeometry x="113" y="188" width="140" height="40" as="geometry" />
        </mxCell>
        <mxCell id="MnoFGSXp_-6RD4RvQXXh-31" value="&lt;font style=&quot;color: rgb(255, 102, 102);&quot;&gt;Συμπλήρωση&lt;/font&gt;&lt;div&gt;&lt;font style=&quot;color: rgb(255, 102, 102);&quot;&gt;&amp;nbsp;κωδικού πρόσβασης&amp;nbsp;&lt;/font&gt;&lt;/div&gt;&lt;div&gt;&lt;font style=&quot;color: rgb(255, 102, 102);&quot;&gt;βάση&amp;nbsp;&lt;/font&gt;&lt;span style=&quot;color: light-dark(rgb(255, 102, 102), rgb(224, 93, 93)); background-color: transparent;&quot;&gt;απαιτήσεων&lt;/span&gt;&lt;/div&gt;" style="text;html=1;align=center;verticalAlign=middle;resizable=0;points=[];autosize=1;strokeColor=none;fillColor=none;rotation=-45;fontStyle=2;fontSize=13;" parent="1" vertex="1">
          <mxGeometry x="-115" y="260" width="150" height="60" as="geometry" />
        </mxCell>
        <mxCell id="MnoFGSXp_-6RD4RvQXXh-33" value="&lt;font style=&quot;color: rgb(255, 102, 102);&quot;&gt;Username/ Email&lt;/font&gt;&lt;div&gt;&lt;font style=&quot;color: rgb(255, 102, 102);&quot;&gt;ήδη σε χρήση&lt;/font&gt;&lt;/div&gt;" style="text;html=1;align=center;verticalAlign=middle;resizable=0;points=[];autosize=1;strokeColor=none;fillColor=none;rotation=-30;fontSize=13;fontStyle=2" parent="1" vertex="1">
          <mxGeometry x="-129" y="490" width="120" height="40" as="geometry" />
        </mxCell>
        <mxCell id="MnoFGSXp_-6RD4RvQXXh-34" value="&lt;font style=&quot;color: rgb(255, 102, 102);&quot;&gt;Εμφάνιση μηνύματος για υπάρχοντα&amp;nbsp; στοιχεία λογαριαμού&lt;/font&gt;" style="ellipse;shape=umlControl;whiteSpace=wrap;html=1;strokeColor=#FF6666;" parent="1" vertex="1">
          <mxGeometry x="-350" y="318" width="126" height="115" as="geometry" />
        </mxCell>
        <mxCell id="MnoFGSXp_-6RD4RvQXXh-35" value="" style="shape=umlBoundary;whiteSpace=wrap;html=1;strokeColor=#FF6666;" parent="1" vertex="1">
          <mxGeometry x="-245" y="238" width="100" height="80" as="geometry" />
        </mxCell>
        <mxCell id="MnoFGSXp_-6RD4RvQXXh-39" value="&lt;font style=&quot;color: rgb(255, 102, 102);&quot;&gt;Συμπλήρωση διαφορετικόυ&amp;nbsp;&lt;/font&gt;&lt;div&gt;&lt;font style=&quot;color: rgb(255, 102, 102);&quot;&gt;username/email&lt;/font&gt;&lt;/div&gt;" style="text;html=1;align=center;verticalAlign=middle;resizable=0;points=[];autosize=1;strokeColor=none;fillColor=none;rotation=-10;fontStyle=2;fontSize=13;" parent="1" vertex="1">
          <mxGeometry x="-145" y="210" width="180" height="40" as="geometry" />
        </mxCell>
        <mxCell id="MnoFGSXp_-6RD4RvQXXh-41" value="&lt;font style=&quot;color: rgb(255, 102, 102);&quot;&gt;Εμφάνιση μηνύματος λανθασμένου κωδικού πρόσβασης για επιβεβαίωση&lt;/font&gt;" style="ellipse;shape=umlControl;whiteSpace=wrap;html=1;strokeColor=#FF6666;" parent="1" vertex="1">
          <mxGeometry x="-400" y="180" width="140" height="110" as="geometry" />
        </mxCell>
        <mxCell id="MnoFGSXp_-6RD4RvQXXh-42" value="&lt;font style=&quot;color: rgb(255, 102, 102);&quot;&gt;Διαφορετική καταχώρηση&amp;nbsp;&lt;/font&gt;&lt;div&gt;&lt;font style=&quot;color: rgb(255, 102, 102);&quot;&gt;κωδικού&amp;nbsp;&lt;/font&gt;&lt;span style=&quot;color: light-dark(rgb(255, 102, 102), rgb(224, 93, 93)); background-color: transparent;&quot;&gt;πρόσβασης στο&amp;nbsp;&lt;/span&gt;&lt;div&gt;&lt;font style=&quot;color: rgb(255, 102, 102);&quot;&gt;πεδίο επιβεβαίωσης&amp;nbsp;&lt;/font&gt;&lt;/div&gt;&lt;/div&gt;" style="text;html=1;align=center;verticalAlign=middle;resizable=0;points=[];autosize=1;strokeColor=none;fillColor=none;rotation=-30;fontStyle=2;fontSize=13;" parent="1" vertex="1">
          <mxGeometry x="-260" y="600" width="170" height="60" as="geometry" />
        </mxCell>
        <mxCell id="MnoFGSXp_-6RD4RvQXXh-45" value="" style="shape=umlBoundary;whiteSpace=wrap;html=1;strokeColor=#FF6666;" parent="1" vertex="1">
          <mxGeometry x="-260" y="80" width="100" height="80" as="geometry" />
        </mxCell>
        <mxCell id="MnoFGSXp_-6RD4RvQXXh-46" value="&lt;font style=&quot;color: rgb(255, 102, 102);&quot;&gt;Συμπλήρωση διαφορετικού&amp;nbsp;&lt;/font&gt;&lt;div&gt;&lt;font style=&quot;color: rgb(255, 102, 102);&quot;&gt;κωδικού πρόσβασης&lt;/font&gt;&lt;/div&gt;" style="text;html=1;align=center;verticalAlign=middle;resizable=0;points=[];autosize=1;strokeColor=none;fillColor=none;rotation=20;fontStyle=2;fontSize=13;" parent="1" vertex="1">
          <mxGeometry x="-140" y="135" width="180" height="40" as="geometry" />
        </mxCell>
        <mxCell id="MnoFGSXp_-6RD4RvQXXh-53" value="Εμφάνισης σελίδας Login με το μήνυμα επιτυχίας" style="ellipse;shape=umlControl;whiteSpace=wrap;html=1;" parent="1" vertex="1">
          <mxGeometry x="395" y="464" width="100" height="92" as="geometry" />
        </mxCell>
        <mxCell id="MnoFGSXp_-6RD4RvQXXh-57" value="Register Page" style="text;html=1;align=center;verticalAlign=middle;resizable=0;points=[];autosize=1;strokeColor=none;fillColor=none;fontColor=#FF3333;fontSize=14;fontStyle=1" parent="1" vertex="1">
          <mxGeometry x="-180" y="320" width="110" height="30" as="geometry" />
        </mxCell>
        <mxCell id="MnoFGSXp_-6RD4RvQXXh-58" value="Register Page" style="text;html=1;align=center;verticalAlign=middle;resizable=0;points=[];autosize=1;strokeColor=none;fillColor=none;fontColor=#FF3333;fontSize=14;fontStyle=1" parent="1" vertex="1">
          <mxGeometry x="-250" y="210" width="110" height="30" as="geometry" />
        </mxCell>
        <mxCell id="MnoFGSXp_-6RD4RvQXXh-62" value="Register Page" style="text;html=1;align=center;verticalAlign=middle;resizable=0;points=[];autosize=1;strokeColor=none;fillColor=none;fontColor=#FF3333;fontSize=14;fontStyle=1" parent="1" vertex="1">
          <mxGeometry x="-250" y="50" width="110" height="30" as="geometry" />
        </mxCell>
        <mxCell id="MnoFGSXp_-6RD4RvQXXh-68" value="" style="shape=umlBoundary;whiteSpace=wrap;html=1;" parent="1" vertex="1">
          <mxGeometry x="170" y="480" width="100" height="80" as="geometry" />
        </mxCell>
        <mxCell id="MnoFGSXp_-6RD4RvQXXh-69" value="Login page" style="text;html=1;align=center;verticalAlign=middle;resizable=0;points=[];autosize=1;strokeColor=none;fillColor=none;fontSize=14;fontStyle=1" parent="1" vertex="1">
          <mxGeometry x="190" y="450" width="90" height="30" as="geometry" />
        </mxCell>
        <mxCell id="MnoFGSXp_-6RD4RvQXXh-72" value="" style="endArrow=none;html=1;rounded=0;strokeColor=#FF6666;" parent="1" edge="1">
          <mxGeometry width="50" height="50" relative="1" as="geometry">
            <mxPoint x="239.99544127859392" y="372.28189048813306" as="sourcePoint" />
            <mxPoint x="-180" y="590" as="targetPoint" />
          </mxGeometry>
        </mxCell>
        <mxCell id="MnoFGSXp_-6RD4RvQXXh-74" value="" style="endArrow=none;html=1;rounded=0;strokeColor=#FF6666;" parent="1" edge="1">
          <mxGeometry width="50" height="50" relative="1" as="geometry">
            <mxPoint x="-180" y="590" as="sourcePoint" />
            <mxPoint x="-280" y="550" as="targetPoint" />
          </mxGeometry>
        </mxCell>
        <mxCell id="MnoFGSXp_-6RD4RvQXXh-76" value="" style="endArrow=none;html=1;rounded=0;strokeColor=#FF6666;" parent="1" source="MnoFGSXp_-6RD4RvQXXh-13" edge="1">
          <mxGeometry width="50" height="50" relative="1" as="geometry">
            <mxPoint x="256.7846690014153" y="399.99951496383744" as="sourcePoint" />
            <mxPoint x="-250" y="700" as="targetPoint" />
            <Array as="points">
              <mxPoint x="-220" y="700" />
            </Array>
          </mxGeometry>
        </mxCell>
        <mxCell id="MnoFGSXp_-6RD4RvQXXh-77" value="" style="endArrow=none;html=1;rounded=0;strokeColor=#FF6666;" parent="1" edge="1">
          <mxGeometry width="50" height="50" relative="1" as="geometry">
            <mxPoint x="-250" y="700" as="sourcePoint" />
            <mxPoint x="-380" y="370" as="targetPoint" />
          </mxGeometry>
        </mxCell>
        <mxCell id="MnoFGSXp_-6RD4RvQXXh-79" value="Αποστολή email επιβεβαίωσης με κωδικό επιβεβαίωσης&amp;nbsp;&amp;nbsp;" style="ellipse;shape=umlControl;whiteSpace=wrap;html=1;" parent="1" vertex="1">
          <mxGeometry x="30" y="560" width="110" height="100" as="geometry" />
        </mxCell>
        <mxCell id="MnoFGSXp_-6RD4RvQXXh-4" value="" style="shape=umlBoundary;whiteSpace=wrap;html=1;" parent="1" vertex="1">
          <mxGeometry x="235" y="60" width="100" height="80" as="geometry" />
        </mxCell>
        <mxCell id="MnoFGSXp_-6RD4RvQXXh-86" value="" style="endArrow=classic;html=1;rounded=0;fillColor=#dae8fc;strokeColor=#6c8ebf;" parent="1" source="MnoFGSXp_-6RD4RvQXXh-1" target="MnoFGSXp_-6RD4RvQXXh-4" edge="1">
          <mxGeometry width="50" height="50" relative="1" as="geometry">
            <mxPoint x="140" y="380" as="sourcePoint" />
            <mxPoint x="190" y="330" as="targetPoint" />
          </mxGeometry>
        </mxCell>
        <mxCell id="MnoFGSXp_-6RD4RvQXXh-87" value="" style="endArrow=classic;html=1;rounded=0;" parent="1" source="MnoFGSXp_-6RD4RvQXXh-4" target="MnoFGSXp_-6RD4RvQXXh-7" edge="1">
          <mxGeometry width="50" height="50" relative="1" as="geometry">
            <mxPoint x="140" y="380" as="sourcePoint" />
            <mxPoint x="190" y="330" as="targetPoint" />
          </mxGeometry>
        </mxCell>
        <mxCell id="MnoFGSXp_-6RD4RvQXXh-88" value="" style="endArrow=classic;html=1;rounded=0;" parent="1" source="MnoFGSXp_-6RD4RvQXXh-7" target="MnoFGSXp_-6RD4RvQXXh-9" edge="1">
          <mxGeometry width="50" height="50" relative="1" as="geometry">
            <mxPoint x="570" y="510" as="sourcePoint" />
            <mxPoint x="646" y="524" as="targetPoint" />
          </mxGeometry>
        </mxCell>
        <mxCell id="MnoFGSXp_-6RD4RvQXXh-89" value="" style="endArrow=classic;html=1;rounded=0;" parent="1" source="MnoFGSXp_-6RD4RvQXXh-1" target="MnoFGSXp_-6RD4RvQXXh-9" edge="1">
          <mxGeometry width="50" height="50" relative="1" as="geometry">
            <mxPoint x="670" y="579" as="sourcePoint" />
            <mxPoint x="746" y="593" as="targetPoint" />
          </mxGeometry>
        </mxCell>
        <mxCell id="MnoFGSXp_-6RD4RvQXXh-90" value="" style="endArrow=classic;html=1;rounded=0;" parent="1" source="MnoFGSXp_-6RD4RvQXXh-9" target="MnoFGSXp_-6RD4RvQXXh-13" edge="1">
          <mxGeometry width="50" height="50" relative="1" as="geometry">
            <mxPoint x="550" y="610" as="sourcePoint" />
            <mxPoint x="626" y="624" as="targetPoint" />
          </mxGeometry>
        </mxCell>
        <mxCell id="MnoFGSXp_-6RD4RvQXXh-91" value="" style="endArrow=classic;html=1;rounded=0;" parent="1" source="MnoFGSXp_-6RD4RvQXXh-13" target="MnoFGSXp_-6RD4RvQXXh-15" edge="1">
          <mxGeometry width="50" height="50" relative="1" as="geometry">
            <mxPoint x="140" y="380" as="sourcePoint" />
            <mxPoint x="190" y="330" as="targetPoint" />
          </mxGeometry>
        </mxCell>
        <mxCell id="MnoFGSXp_-6RD4RvQXXh-92" value="" style="endArrow=classic;html=1;rounded=0;" parent="1" source="MnoFGSXp_-6RD4RvQXXh-13" target="MnoFGSXp_-6RD4RvQXXh-18" edge="1">
          <mxGeometry width="50" height="50" relative="1" as="geometry">
            <mxPoint x="620" y="605" as="sourcePoint" />
            <mxPoint x="670" y="555" as="targetPoint" />
          </mxGeometry>
        </mxCell>
        <mxCell id="MnoFGSXp_-6RD4RvQXXh-93" value="" style="endArrow=classic;html=1;rounded=0;" parent="1" source="MnoFGSXp_-6RD4RvQXXh-18" target="MnoFGSXp_-6RD4RvQXXh-15" edge="1">
          <mxGeometry width="50" height="50" relative="1" as="geometry">
            <mxPoint x="140" y="380" as="sourcePoint" />
            <mxPoint x="190" y="330" as="targetPoint" />
          </mxGeometry>
        </mxCell>
        <mxCell id="MnoFGSXp_-6RD4RvQXXh-94" value="" style="endArrow=classic;html=1;rounded=0;" parent="1" source="MnoFGSXp_-6RD4RvQXXh-18" target="MnoFGSXp_-6RD4RvQXXh-21" edge="1">
          <mxGeometry width="50" height="50" relative="1" as="geometry">
            <mxPoint x="140" y="380" as="sourcePoint" />
            <mxPoint x="190" y="330" as="targetPoint" />
          </mxGeometry>
        </mxCell>
        <mxCell id="MnoFGSXp_-6RD4RvQXXh-97" value="" style="endArrow=classic;html=1;rounded=0;" parent="1" source="MnoFGSXp_-6RD4RvQXXh-18" target="MnoFGSXp_-6RD4RvQXXh-53" edge="1">
          <mxGeometry width="50" height="50" relative="1" as="geometry">
            <mxPoint x="140" y="380" as="sourcePoint" />
            <mxPoint x="482.58335108580513" y="457.65487856929167" as="targetPoint" />
          </mxGeometry>
        </mxCell>
        <mxCell id="MnoFGSXp_-6RD4RvQXXh-98" value="" style="endArrow=classic;html=1;rounded=0;" parent="1" source="MnoFGSXp_-6RD4RvQXXh-1" target="MnoFGSXp_-6RD4RvQXXh-68" edge="1">
          <mxGeometry width="50" height="50" relative="1" as="geometry">
            <mxPoint x="140" y="380" as="sourcePoint" />
            <mxPoint x="190" y="330" as="targetPoint" />
          </mxGeometry>
        </mxCell>
        <mxCell id="MnoFGSXp_-6RD4RvQXXh-99" value="" style="endArrow=classic;html=1;rounded=0;" parent="1" source="MnoFGSXp_-6RD4RvQXXh-68" target="MnoFGSXp_-6RD4RvQXXh-79" edge="1">
          <mxGeometry width="50" height="50" relative="1" as="geometry">
            <mxPoint x="140" y="380" as="sourcePoint" />
            <mxPoint x="190" y="330" as="targetPoint" />
          </mxGeometry>
        </mxCell>
        <mxCell id="MnoFGSXp_-6RD4RvQXXh-100" value="" style="endArrow=classic;html=1;rounded=0;strokeColor=#000000;" parent="1" source="MnoFGSXp_-6RD4RvQXXh-53" target="MnoFGSXp_-6RD4RvQXXh-68" edge="1">
          <mxGeometry width="50" height="50" relative="1" as="geometry">
            <mxPoint x="140" y="380" as="sourcePoint" />
            <mxPoint x="190" y="330" as="targetPoint" />
          </mxGeometry>
        </mxCell>
        <mxCell id="MnoFGSXp_-6RD4RvQXXh-101" value="" style="endArrow=classic;html=1;rounded=0;fontColor=light-dark(#FF3333,#ED0202);strokeColor=light-dark(#FF3333,#ED0202);" parent="1" source="MnoFGSXp_-6RD4RvQXXh-13" target="MnoFGSXp_-6RD4RvQXXh-26" edge="1">
          <mxGeometry width="50" height="50" relative="1" as="geometry">
            <mxPoint x="140" y="380" as="sourcePoint" />
            <mxPoint x="190" y="330" as="targetPoint" />
          </mxGeometry>
        </mxCell>
        <mxCell id="MnoFGSXp_-6RD4RvQXXh-102" value="" style="endArrow=classic;html=1;rounded=0;strokeColor=light-dark(#FF3333,#ED0202);" parent="1" target="MnoFGSXp_-6RD4RvQXXh-34" edge="1">
          <mxGeometry width="50" height="50" relative="1" as="geometry">
            <mxPoint x="-280" y="550" as="sourcePoint" />
            <mxPoint x="190" y="330" as="targetPoint" />
          </mxGeometry>
        </mxCell>
        <mxCell id="MnoFGSXp_-6RD4RvQXXh-103" value="" style="endArrow=classic;html=1;rounded=0;strokeColor=light-dark(#FF3333,#ED0202);" parent="1" source="MnoFGSXp_-6RD4RvQXXh-34" target="MnoFGSXp_-6RD4RvQXXh-35" edge="1">
          <mxGeometry width="50" height="50" relative="1" as="geometry">
            <mxPoint x="140" y="380" as="sourcePoint" />
            <mxPoint x="190" y="330" as="targetPoint" />
          </mxGeometry>
        </mxCell>
        <mxCell id="MnoFGSXp_-6RD4RvQXXh-104" value="" style="endArrow=classic;html=1;rounded=0;strokeColor=light-dark(#FF3333,#ED0202);" parent="1" target="MnoFGSXp_-6RD4RvQXXh-41" edge="1">
          <mxGeometry width="50" height="50" relative="1" as="geometry">
            <mxPoint x="-380" y="370" as="sourcePoint" />
            <mxPoint x="190" y="330" as="targetPoint" />
          </mxGeometry>
        </mxCell>
        <mxCell id="MnoFGSXp_-6RD4RvQXXh-105" value="" style="endArrow=classic;html=1;rounded=0;strokeColor=light-dark(#FF3333,#ED0202);" parent="1" source="MnoFGSXp_-6RD4RvQXXh-41" target="MnoFGSXp_-6RD4RvQXXh-45" edge="1">
          <mxGeometry width="50" height="50" relative="1" as="geometry">
            <mxPoint x="140" y="380" as="sourcePoint" />
            <mxPoint x="190" y="330" as="targetPoint" />
          </mxGeometry>
        </mxCell>
        <mxCell id="MnoFGSXp_-6RD4RvQXXh-106" value="" style="endArrow=classic;html=1;rounded=0;strokeColor=light-dark(#FF3333,#ED0202);" parent="1" source="MnoFGSXp_-6RD4RvQXXh-1" target="MnoFGSXp_-6RD4RvQXXh-45" edge="1">
          <mxGeometry width="50" height="50" relative="1" as="geometry">
            <mxPoint x="140" y="380" as="sourcePoint" />
            <mxPoint x="190" y="330" as="targetPoint" />
          </mxGeometry>
        </mxCell>
        <mxCell id="MnoFGSXp_-6RD4RvQXXh-107" value="" style="endArrow=classic;html=1;rounded=0;strokeColor=light-dark(#FF3333,#ED0202);" parent="1" source="MnoFGSXp_-6RD4RvQXXh-1" target="MnoFGSXp_-6RD4RvQXXh-35" edge="1">
          <mxGeometry width="50" height="50" relative="1" as="geometry">
            <mxPoint x="140" y="380" as="sourcePoint" />
            <mxPoint x="190" y="330" as="targetPoint" />
          </mxGeometry>
        </mxCell>
        <mxCell id="MnoFGSXp_-6RD4RvQXXh-108" value="" style="endArrow=classic;html=1;rounded=0;strokeColor=light-dark(#FF3333,#ED0202);" parent="1" source="MnoFGSXp_-6RD4RvQXXh-1" target="MnoFGSXp_-6RD4RvQXXh-27" edge="1">
          <mxGeometry width="50" height="50" relative="1" as="geometry">
            <mxPoint x="140" y="380" as="sourcePoint" />
            <mxPoint x="190" y="330" as="targetPoint" />
          </mxGeometry>
        </mxCell>
        <mxCell id="MnoFGSXp_-6RD4RvQXXh-109" value="" style="endArrow=classic;html=1;rounded=0;strokeColor=light-dark(#FF3333,#ED0202);" parent="1" source="MnoFGSXp_-6RD4RvQXXh-26" target="MnoFGSXp_-6RD4RvQXXh-27" edge="1">
          <mxGeometry width="50" height="50" relative="1" as="geometry">
            <mxPoint x="140" y="380" as="sourcePoint" />
            <mxPoint x="190" y="330" as="targetPoint" />
          </mxGeometry>
        </mxCell>
      </root>
    </mxGraphModel>
  </diagram>
</mxfile>
